<svg xmlns="http://www.w3.org/2000/svg" width="439" height="144" fill="none"><path fill="#fff" d="M29.952 63h8.064V12.744h-8.064v21.384H13.248V12.744H5.184V63h8.064V40.896h16.704V63Zm53.468 0v-6.192h-4.68V38.16c0-8.496-5.76-13.176-15.12-13.176-7.848 0-12.888 3.384-14.976 7.416l4.68 3.816c2.016-3.096 4.824-5.112 9.576-5.112 5.328 0 7.992 2.592 7.992 7.56v2.88h-7.128c-11.016 0-16.272 3.888-16.272 11.088 0 6.984 4.896 11.232 12.456 11.232 5.832 0 9.72-2.664 11.16-7.128h.36C71.9 60.48 74.132 63 78.596 63h4.824Zm-21.24-4.896c-4.176 0-6.768-1.728-6.768-5.04v-1.44c0-3.312 2.736-5.112 8.496-5.112h6.984v5.4c0 3.672-3.672 6.192-8.712 6.192Zm47.132 5.76c7.776 0 12.6-3.672 14.976-8.856l-5.76-3.528c-1.728 3.6-4.536 5.904-9.144 5.904-6.12 0-9.504-4.032-9.504-9.864v-6.192c0-5.904 3.456-9.864 9.36-9.864 4.32 0 7.056 2.16 8.352 5.616l6.12-3.312c-2.304-5.184-6.84-8.784-14.472-8.784-10.944 0-17.568 7.56-17.568 19.44 0 11.88 6.552 19.44 17.64 19.44Zm26.54-.864h7.848V49.752l5.184-4.824L161.844 63h9.432l-16.704-22.536 15.048-14.616h-9.288l-10.44 10.08-5.832 5.976h-.36V9.72h-7.848V63Zm60.74-43.92c3.888 0 5.328-1.872 5.328-4.248V13.32c0-2.376-1.44-4.248-5.4-4.248-3.888 0-5.329 1.872-5.329 4.248v1.512c0 2.376 1.441 4.248 5.401 4.248ZM179.96 63h32.399v-6.336H200.48V25.848h-20.52v6.336h12.672v24.48H179.96V63Zm49.795 0V37.8c0-4.32 4.032-6.408 8.064-6.408 5.04 0 7.704 2.952 7.704 8.856V63h7.848V39.096c0-9-5.04-14.112-12.528-14.112-6.12 0-9.144 3.312-10.728 7.2h-.36v-6.336h-7.848V63h7.848Zm70.316 4.032c0-6.12-4.104-10.296-14.112-10.296h-8.352c-3.24 0-5.76-.288-5.76-2.592 0-2.016 2.16-3.168 3.888-3.6 1.44.288 2.952.432 4.608.432 9.144 0 15.12-5.04 15.12-12.96 0-4.464-1.8-7.92-5.04-10.152v-1.728h8.64v-6.192h-6.768c-3.312 0-4.968 2.16-4.968 5.04v1.224c-2.016-.792-4.392-1.224-6.984-1.224-9.144 0-15.12 5.112-15.12 13.032 0 5.328 2.664 9.288 7.128 11.376v.36c-3.888.936-6.696 2.592-6.696 6.264 0 2.808 1.584 4.464 4.104 5.4v.72c-4.104 1.08-6.48 3.168-6.48 7.2 0 5.544 4.464 8.928 17.28 8.928 13.104 0 19.512-3.6 19.512-11.232Zm-7.344.504c0 3.384-3.24 5.184-9.144 5.184h-5.832c-5.472 0-7.632-2.304-7.632-5.112 0-1.944.936-3.312 2.736-4.176h12.888c5.256 0 6.984 1.584 6.984 4.104Zm-12.384-21.96c-5.04 0-7.416-2.664-7.416-6.624v-1.944c0-3.96 2.376-6.624 7.416-6.624 5.04 0 7.416 2.664 7.416 6.624v1.944c0 3.96-2.376 6.624-7.416 6.624Zm88.936-26.496c3.888 0 5.328-1.872 5.328-4.248V13.32c0-2.376-1.44-4.248-5.4-4.248-3.888 0-5.328 1.872-5.328 4.248v1.512c0 2.376 1.44 4.248 5.4 4.248ZM352.647 63h32.4v-6.336h-11.88V25.848h-20.52v6.336h12.672v24.48h-12.672V63Zm49.796 0V37.8c0-4.32 4.032-6.408 8.064-6.408 5.04 0 7.704 2.952 7.704 8.856V63h7.848V39.096c0-9-5.04-14.112-12.528-14.112-6.12 0-9.144 3.312-10.728 7.2h-.36v-6.336h-7.848V63h7.848ZM14.112 135v-20.016H24.84c9.504 0 14.76-5.76 14.76-15.12s-5.256-15.12-14.76-15.12H6.048V135h8.064Zm0-43.56h9.504c5.04 0 7.488 2.232 7.488 6.84v3.096c0 4.608-2.448 6.912-7.488 6.912h-9.504V91.44ZM83.42 135v-6.192h-4.68V110.16c0-8.496-5.76-13.176-15.12-13.176-7.848 0-12.888 3.384-14.976 7.416l4.68 3.816c2.016-3.096 4.824-5.112 9.576-5.112 5.328 0 7.992 2.592 7.992 7.56v2.88h-7.128c-11.016 0-16.272 3.888-16.272 11.088 0 6.984 4.896 11.232 12.456 11.232 5.832 0 9.72-2.664 11.16-7.128h.36C71.9 132.48 74.132 135 78.596 135h4.824Zm-21.24-4.896c-4.176 0-6.768-1.728-6.768-5.04v-1.44c0-3.312 2.736-5.112 8.496-5.112h6.984v5.4c0 3.672-3.672 6.192-8.712 6.192ZM91.816 135h31.176v-6.336h-13.464v-17.136c0-3.816 3.6-6.192 9.36-6.192h7.776v-7.488h-5.256c-6.408 0-9.936 3.816-11.448 7.92h-.432v-7.92H91.816v6.336h9.864v24.48h-9.864V135Zm77.948 0v-6.192h-4.68V110.16c0-8.496-5.76-13.176-15.12-13.176-7.848 0-12.888 3.384-14.976 7.416l4.68 3.816c2.016-3.096 4.824-5.112 9.576-5.112 5.328 0 7.992 2.592 7.992 7.56v2.88h-7.128c-11.016 0-16.272 3.888-16.272 11.088 0 6.984 4.896 11.232 12.456 11.232 5.832 0 9.72-2.664 11.16-7.128h.36c.432 3.744 2.664 6.264 7.128 6.264h4.824Zm-21.24-4.896c-4.176 0-6.768-1.728-6.768-5.04v-1.44c0-3.312 2.736-5.112 8.496-5.112h6.984v5.4c0 3.672-3.672 6.192-8.712 6.192ZM178.088 135h32.472v-6.336h-12.312V81.72h-20.16v6.336H190.4v40.608h-12.312V135Zm43.171 0h32.472v-6.336h-12.312V81.72h-20.16v6.336h12.312v40.608h-12.312V135Zm60.164.864c7.632 0 12.816-3.384 15.336-7.704l-4.896-4.32c-2.088 3.456-5.544 5.688-10.296 5.688-6.408 0-10.296-4.104-10.296-9.936v-1.224h26.64v-2.952c0-10.944-6.624-18.432-17.064-18.432-10.584 0-17.496 7.56-17.496 19.512 0 11.808 6.696 19.368 18.072 19.368Zm-.576-32.904c5.472 0 9.072 3.816 9.072 9.648v.72h-18.648v-.504c0-5.76 3.96-9.864 9.576-9.864ZM307.603 135h32.472v-6.336h-12.312V81.72h-20.16v6.336h12.312v40.608h-12.312V135Z"/><path fill="url(#a)" d="M353 135.248h7.675L393 81h-7.675L353 135.248Z"/><path fill="url(#b)" d="M368 135.248h7.675L408 81h-7.675L368 135.248Z"/><path fill="url(#c)" d="M383 135.248h7.675L423 81h-7.675L383 135.248Z"/><path fill="url(#d)" d="M399 135.248h7.675L439 81h-7.675L399 135.248Z"/><defs><linearGradient id="a" x1="357.593" x2="357.593" y1="135.248" y2="81" gradientUnits="userSpaceOnUse"><stop stop-color="#F90"/><stop offset="1" stop-color="#44B4E9"/></linearGradient><linearGradient id="b" x1="372.425" x2="372.425" y1="135.248" y2="81" gradientUnits="userSpaceOnUse"><stop stop-color="#6C2400"/><stop offset=".347" stop-color="#003A3E"/><stop offset=".685" stop-color="#267400"/><stop offset="1" stop-color="#FFD630"/></linearGradient><linearGradient id="c" x1="387.425" x2="387.425" y1="135.248" y2="81" gradientUnits="userSpaceOnUse"><stop stop-color="#F0C728"/><stop offset="1" stop-color="#fff"/></linearGradient><linearGradient id="d" x1="431.5" x2="431.221" y1="87" y2="135.408" gradientUnits="userSpaceOnUse"><stop stop-color="#F8E830"/><stop offset=".526" stop-color="#3CACD7"/><stop offset="1" stop-color="#002E5C"/></linearGradient></defs></svg>